<svg xmlns="http://www.w3.org/2000/svg" xmlns:xlink="http://www.w3.org/1999/xlink" id="Layer_1" x="0" y="0" version="1.1" viewBox="0 0 500 500" xml:space="preserve" style="enable-background:new 0 0 500 500"><style type="text/css">.st0{fill:#28324f}.st1{fill:#e84949}.st2{fill:#f5cf41}.st3{fill:#30d898}.st4{fill:#fff}</style><g><rect width="500" height="500" class="st0"/><g><polygon points="58.2 116.4 105.5 126.3 105.5 373.7 58.2 383.6" class="st1"/><polygon points="177.6 112.5 177.6 387.5 124.3 398.4 124.3 101.6" class="st2"/><g><polygon points="441.8 134.4 441.8 365.6 196.3 414.9 196.3 85.1" class="st3"/></g><g><path d="M360.3,325.6l-76,15.3c-1.8,0.4-3.6,0.5-5.4,0.5c-6.2,0-12.3-2.1-17.2-6.1c-6.3-5.2-10-12.9-10-21.1V186.3 l-12.6,12.6L228,187.7l31.6-31.6l31.6,31.6l-11.2,11.2l-12.6-12.6v127.9c0,3.5,1.5,6.7,4.2,8.9c2.7,2.2,6.2,3.1,9.5,2.4 l65.7-13.2L360.3,325.6z" class="st4"/></g><g><path d="M410.1,288.6l-31.6,31.6l-31.6-31.6l11.1-11.2l12.6,12.6V202c0-5.4-3.9-10.2-9.2-11.2l-57-11.5l-20.1-20.1 l80.3,16.2c12.6,2.5,21.8,13.8,21.8,26.7v88.1l12.6-12.6L410.1,288.6z" class="st4"/></g></g></g></svg>